<?xml version="1.0" encoding="UTF-8"?>
<svg id="_레이어_2" data-name="레이어 2" xmlns="http://www.w3.org/2000/svg" viewBox="0 0 278.89 494.05">
  <defs>
    <style>
      .cls-1 {
        fill: #fff;
      }

      .cls-2 {
        fill: #fff;
      }

      .cls-3 {
        fill: #fff;
      }

      .cls-4 {
        fill: #fff;
      }

      .cls-5 {
        fill: #fff;
      }

      .cls-6 {
        fill: #fff;
      }
    </style>
  </defs>
  <g id="_레이어_1-2" data-name="레이어 1">
    <g>
      <polygon class="cls-3" points="206.18 43.2 195.91 43.2 198.36 0 202.76 0 206.18 43.2"/>
      <g>
        <rect class="cls-6" x="169.21" y="43.2" width="63.68" height="58.17"/>
        <path class="cls-1" d="M234.97,103.46h-67.85V41.11h67.85v62.35Zm-63.68-4.18h59.5V45.28h-59.5v54Z"/>
      </g>
      <rect class="cls-1" x="181.66" y="42.77" width="4.17" height="57.62"/>
      <rect class="cls-1" x="198.96" y="42.77" width="4.17" height="57.62"/>
      <rect class="cls-1" x="216.26" y="42.77" width="4.17" height="57.62"/>
      <polygon class="cls-1" points="45.13 283.12 40.96 283.12 40.96 243.4 159.95 243.4 159.95 247.57 45.13 247.57 45.13 283.12"/>
      <rect class="cls-1" x="55.5" y="245.48" width="4.17" height="37.64"/>
      <rect class="cls-1" x="73.46" y="245.48" width="4.17" height="37.64"/>
      <rect class="cls-1" x="91.42" y="245.48" width="4.17" height="37.64"/>
      <rect class="cls-1" x="109.39" y="245.48" width="4.17" height="37.64"/>
      <rect class="cls-1" x="127.35" y="245.48" width="4.17" height="37.64"/>
      <rect class="cls-1" x="145.31" y="245.48" width="4.17" height="37.64"/>
      <polygon class="cls-3" points="38.17 305.07 18.56 303.81 .95 392.8 25.51 368.7 38.17 305.07"/>
      <polygon class="cls-4" points="264.68 380.99 20.05 380.99 38.87 283.12 245.86 283.12 264.68 380.99"/>
      <polygon class="cls-4" points="245.86 283.12 151.78 283.12 165.46 157.91 232.18 154.31 245.86 283.12"/>
      <polygon class="cls-4" points="277.94 151.82 165.03 157.91 165.03 97.94 277.94 104.02 277.94 151.82"/>
      <rect class="cls-4" x="153.06" y="164.53" width="13.78" height="26.27" transform="translate(15.82 -13.06) rotate(4.92)"/>
      <rect class="cls-4" x="149.06" y="203.22" width="13.78" height="26.27" transform="translate(19.12 -12.57) rotate(4.92)"/>
      <polygon class="cls-4" points="78.66 493.11 33.93 493.11 20.05 380.99 92.54 380.99 78.66 493.11"/>
      <polygon class="cls-4" points="251.07 493.11 206.35 493.11 192.47 380.99 264.96 380.99 251.07 493.11"/>
      <path class="cls-3" d="M212.33,118.74c0,3.12-2.53,5.64-5.64,5.64s-5.64-2.53-5.64-5.64,2.53-5.64,5.64-5.64,5.64,2.53,5.64,5.64Z"/>
      <path class="cls-2" d="M259.32,384.06H24.06c-2.31,0-4.17-1.87-4.17-4.17s1.87-4.17,4.17-4.17h235.26c2.31,0,4.17,1.87,4.17,4.17s-1.87,4.17-4.17,4.17Z"/>
      <path class="cls-2" d="M171.4,162.08c-2.25,0-4.11-1.79-4.17-4.06-.06-2.3,1.76-4.22,4.06-4.28l54.89-1.48s.08,0,.12,0c2.25,0,4.11,1.79,4.17,4.06,.06,2.3-1.76,4.22-4.06,4.28l-54.89,1.48s-.08,0-.12,0Z"/>
      <path class="cls-2" d="M240.14,287.29h-84.19c-2.31,0-4.17-1.87-4.17-4.17s1.87-4.17,4.17-4.17h84.19c2.31,0,4.17,1.87,4.17,4.17s-1.87,4.17-4.17,4.17Z"/>
      <g>
        <path class="cls-5" d="M251.08,494.05h-44.73c-.48,0-.88-.36-.94-.83l-13.78-111.29H93.38l-13.78,111.29c-.06,.47-.46,.83-.94,.83H33.93c-.48,0-.88-.36-.94-.83l-13.88-112.12c-.01-.1,0-.2,.01-.29l1.07-5.58L1.61,393.47c-.3,.29-.75,.35-1.11,.16-.37-.2-.56-.61-.48-1.02l17.61-88.99c.09-.46,.47-.79,.99-.76l15.3,.98,4.02-20.91c.08-.45,.47-.77,.93-.77h112.06l5.64-51.64-8.69-.75c-.52-.04-.91-.5-.86-1.02l2.25-26.17c.04-.52,.51-.9,1.02-.86l9.34,.8,1.16-10.67-8.91-.77c-.52-.04-.91-.5-.86-1.02l2.25-26.17c.04-.52,.55-.9,1.02-.86l9.56,.82,.66-6.06c.05-.46,.43-.82,.89-.84l66.72-3.6c.52-.03,.94,.34,.99,.85l13.68,128.77,18.69,97.24c.06,.04,.12,.09,.17,.15,.18,.2,.26,.47,.23,.74l-13.88,112.12c-.06,.47-.46,.83-.94,.83Zm-43.89-1.89h43.06l13.69-110.59c-.09-.11-.15-.25-.18-.4l-18.82-97.87s0-.05-.01-.08l-13.59-127.92-65.02,3.51-.67,6.18c-.06,.51-.52,.89-1.02,.84l-9.54-.82-2.09,24.28,8.94,.77c.25,.02,.49,.15,.65,.34,.16,.2,.24,.45,.21,.7l-1.37,12.56c-.06,.51-.52,.87-1.02,.84l-9.32-.8-2.09,24.28,8.71,.75c.25,.02,.49,.15,.65,.34,.16,.2,.24,.45,.21,.7l-5.84,53.44c-.05,.48-.46,.84-.94,.84H39.65l-4.03,20.96c-.09,.47-.46,.8-.99,.77l-15.3-.98L2.47,389.98l18.56-18.21c.3-.29,.75-.35,1.11-.16,.36,.2,.56,.61,.48,1.01l-1.62,8.41,13.76,111.14h43.06l13.78-111.29c.06-.47,.46-.83,.94-.83h99.92c.48,0,.88,.36,.94,.83l13.78,111.29Z"/>
        <path class="cls-5" d="M165.04,158.85c-.24,0-.47-.09-.65-.26-.19-.18-.3-.43-.3-.69v-59.97c0-.26,.11-.51,.3-.69,.19-.18,.47-.28,.7-.26l112.9,6.08c.5,.03,.9,.44,.9,.95v47.8c0,.5-.39,.92-.9,.95l-112.9,6.08s-.03,0-.05,0Zm.95-59.92v57.97l111.01-5.98v-46.01l-111.01-5.98Z"/>
      </g>
    </g>
  </g>
</svg>